<svg id="Layer_1" data-name="Layer 1" xmlns="http://www.w3.org/2000/svg" viewBox="0 0 33 33"><defs><style>.cls-1{fill:#30a05e;}.cls-2{fill:#fff;}</style></defs><circle class="cls-1" cx="16.5" cy="16.5" r="16.5"/><path class="cls-2" d="M672.7,362.29H661.16l2.43-2.41a1,1,0,1,0-1.41-1.42L658,362.58a1,1,0,0,0-.2.3l0,.1a.69.69,0,0,0,0,.24s0,.07,0,.1a1.2,1.2,0,0,0,.06.32,0,0,0,0,1,0,0h0a1,1,0,0,0,.2.29s0,0,0,0l4.12,4.15a1,1,0,0,0,.71.3,1,1,0,0,0,.71-1.71l-2.43-2.44H672.7a1,1,0,0,0,0-2Z" transform="translate(-653.24 -349.81)"/><path class="cls-2" d="M666.78,370.33h11.54l-2.43,2.41a1,1,0,0,0,1.41,1.42l4.15-4.12a1,1,0,0,0,.2-.3.42.42,0,0,0,0-.1,1.84,1.84,0,0,0,0-.25v-.1a.85.85,0,0,0-.06-.31v0h0a.91.91,0,0,0-.19-.29l0,0-4.12-4.15a1,1,0,0,0-.71-.29,1,1,0,0,0-.71.29,1,1,0,0,0,0,1.41l2.43,2.45H666.78a1,1,0,0,0,0,2Z" transform="translate(-653.24 -349.81)"/></svg>